<?xml version="1.0" standalone="no"?>
<!DOCTYPE svg PUBLIC "-//W3C//DTD SVG 20010904//EN"
 "http://www.w3.org/TR/2001/REC-SVG-20010904/DTD/svg10.dtd">
<svg version="1.0" xmlns="http://www.w3.org/2000/svg"
 width="135.000000pt" height="135.000000pt" viewBox="0 0 135.000000 135.000000"
 preserveAspectRatio="xMidYMid meet">
<metadata>
Created by potrace 1.11, written by Peter Selinger 2001-2013
</metadata>
<g transform="translate(0.000000,135.000000) scale(0.100000,-0.100000)"
fill="#000000" stroke="none">
<path d="M345 918 c-62 -164 -61 -158 -36 -158 14 0 25 11 35 35 15 34 17 35
70 35 54 0 56 -1 70 -35 12 -27 21 -35 40 -35 l25 0 -28 78 c-78 208 -78 207
-102 210 -22 2 -28 -8 -74 -130z m104 -35 c1 -9 -13 -13 -38 -13 l-40 0 22 52
21 51 17 -39 c10 -21 18 -45 18 -51z"/>
<path d="M580 905 c0 -138 1 -145 20 -145 19 0 20 7 20 102 l0 101 64 -99 c51
-79 69 -100 90 -102 l26 -3 0 145 c0 138 -1 146 -20 146 -18 0 -20 -8 -22
-102 l-3 -103 -65 103 c-51 80 -70 102 -87 102 -23 0 -23 -1 -23 -145z"/>
<path d="M830 1045 c0 -3 20 -41 45 -84 40 -69 45 -85 45 -139 0 -59 1 -62 25
-62 24 0 25 3 25 56 0 49 6 66 50 141 28 47 50 87 50 89 0 2 -10 4 -23 4 -18
0 -31 -14 -58 -60 -18 -33 -36 -60 -39 -60 -3 0 -19 26 -36 58 -24 45 -36 58
-57 60 -15 2 -27 1 -27 -3z"/>
<path d="M110 435 l0 -145 85 0 c78 0 85 2 85 20 0 18 -7 20 -60 20 l-60 0 0
125 0 125 -25 0 -25 0 0 -145z"/>
<path d="M320 435 l0 -145 106 0 106 0 15 40 16 41 55 -3 c53 -3 56 -4 67 -38
9 -27 18 -36 40 -38 20 -3 26 0 23 10 -3 7 -27 73 -54 146 -46 124 -51 132
-74 130 -22 -3 -30 -18 -75 -135 -27 -73 -51 -128 -53 -123 -2 6 -33 10 -68
10 l-64 0 0 45 0 45 50 0 c43 0 50 3 50 20 0 17 -7 20 -50 20 l-50 0 0 40 0
40 60 0 c53 0 60 2 60 20 0 18 -7 20 -80 20 l-80 0 0 -145z m318 18 l20 -53
-39 0 c-21 0 -39 3 -39 6 0 9 34 103 36 101 1 -1 11 -26 22 -54z"/>
<path d="M780 435 l0 -145 25 0 c24 0 25 3 25 60 0 79 19 79 68 0 31 -49 42
-60 65 -60 15 0 27 2 27 6 0 3 -19 32 -41 66 -35 51 -39 62 -26 69 24 14 39
71 28 102 -14 36 -40 47 -110 47 l-61 0 0 -145z m118 93 c27 -27 -2 -78 -45
-78 -21 0 -23 4 -23 45 0 43 1 45 28 45 15 0 33 -5 40 -12z"/>
<path d="M1020 435 c0 -137 1 -145 20 -145 18 0 20 8 22 102 l3 101 65 -101
c51 -80 70 -102 87 -102 23 0 23 1 23 145 0 138 -1 145 -20 145 -19 0 -20 -7
-20 -102 l0 -103 -66 103 c-54 83 -70 102 -90 102 l-24 0 0 -145z"/>
</g>
</svg>
