<?xml version="1.0" standalone="no"?>
<!DOCTYPE svg PUBLIC "-//W3C//DTD SVG 20010904//EN"
 "http://www.w3.org/TR/2001/REC-SVG-20010904/DTD/svg10.dtd">
<svg version="1.0" xmlns="http://www.w3.org/2000/svg"
 width="260.000000pt" height="260.000000pt" viewBox="0 0 260.000000 260.000000"
 preserveAspectRatio="xMidYMid meet">
<metadata>
Created by potrace 1.11, written by Peter Selinger 2001-2013
</metadata>
<g transform="translate(0.000000,260.000000) scale(0.100000,-0.100000)"
fill="#000000" stroke="none">
<path d="M697 1852 c-38 -97 -72 -186 -77 -197 -57 -138 -72 -187 -59 -196 11
-8 68 -5 74 4 1 1 13 31 27 67 l26 65 108 0 108 0 25 -63 c14 -35 34 -68 44
-74 17 -9 87 -3 87 7 0 5 -25 72 -40 110 -4 11 -26 67 -48 125 -22 58 -60 156
-84 217 l-43 113 -40 0 -40 0 -68 -178z m123 -39 c12 -32 29 -72 36 -90 8 -17
14 -34 14 -37 0 -3 -34 -6 -75 -6 -41 0 -75 2 -75 5 0 3 4 13 9 23 8 16 24 52
42 97 4 11 11 30 14 43 4 12 8 22 10 22 1 0 13 -26 25 -57z"/>
<path d="M1116 2008 c-3 -13 -6 -139 -6 -280 0 -251 1 -258 21 -268 11 -7 32
-9 45 -6 l24 6 2 189 3 189 70 -109 c39 -60 77 -120 85 -134 8 -13 31 -49 50
-79 27 -44 41 -57 66 -62 18 -3 41 -1 53 5 21 11 21 18 21 272 0 160 -4 268
-10 280 -8 13 -21 19 -45 19 l-35 0 -2 -201 -3 -201 -101 158 c-56 88 -112
178 -125 201 -22 40 -27 43 -65 43 -35 0 -43 -4 -48 -22z"/>
<path d="M1606 2014 c-3 -9 17 -54 49 -110 30 -53 55 -97 55 -99 0 -2 14 -28
31 -56 29 -50 31 -59 32 -168 l2 -115 27 -10 c19 -7 35 -6 53 2 25 11 25 13
25 126 l0 115 85 142 c47 78 85 147 86 153 4 32 -2 37 -38 34 -36 -3 -40 -7
-108 -120 -38 -65 -73 -118 -76 -118 -3 0 -13 15 -22 33 -25 49 -69 128 -95
170 -21 32 -29 37 -62 37 -25 0 -40 -5 -44 -16z"/>
<path d="M213 1113 c-10 -3 -13 -70 -13 -284 l0 -279 176 0 175 0 -3 38 -3 37
-112 3 c-80 2 -113 6 -113 15 -1 7 0 105 0 219 1 257 1 258 -54 257 -22 0 -47
-3 -53 -6z"/>
<path d="M610 835 l0 -285 210 0 c197 0 210 1 210 18 0 10 3 22 7 25 4 4 14
29 23 55 l16 47 112 3 c106 2 112 2 112 -17 0 -11 4 -22 8 -25 4 -3 14 -28 22
-55 l14 -51 53 0 c37 0 53 4 53 13 0 7 -20 64 -45 127 -45 115 -64 164 -105
275 -58 158 -56 155 -106 155 -42 0 -42 0 -64 -57 -23 -61 -34 -88 -49 -125
-5 -13 -38 -97 -72 -186 -49 -128 -65 -159 -71 -143 -7 20 -15 21 -123 21
l-115 0 0 85 0 85 84 0 c93 0 110 9 104 57 l-3 28 -93 3 -93 3 3 72 3 72 110
5 110 5 0 35 0 35 -157 3 -158 3 0 -286z m613 50 c14 -38 28 -78 32 -87 6 -16
-1 -18 -70 -18 -42 0 -75 3 -73 8 2 4 19 46 38 94 19 48 38 84 41 80 3 -4 18
-38 32 -77z"/>
<path d="M1506 1098 c-8 -30 -8 -496 0 -525 5 -19 13 -23 50 -23 54 0 58 10
53 140 l-4 90 30 0 c28 0 36 -8 93 -103 34 -57 62 -109 62 -115 0 -8 20 -12
60 -12 33 0 60 4 60 10 0 5 -34 62 -75 125 -41 64 -75 118 -75 121 0 3 17 26
39 50 83 94 55 223 -55 253 -21 6 -82 11 -135 11 -92 0 -97 -1 -103 -22z m227
-91 c25 -29 16 -84 -17 -113 -21 -19 -92 -41 -101 -32 -3 3 -8 153 -6 172 1 5
25 6 54 2 36 -5 58 -13 70 -29z"/>
<path d="M1977 1113 c-4 -3 -7 -132 -7 -285 l0 -278 40 0 40 0 2 198 3 197 40
-65 c21 -36 74 -119 117 -184 43 -66 78 -126 78 -133 0 -9 16 -13 55 -13 l55
0 0 286 0 285 -42 -3 -43 -3 -5 -189 c-4 -140 -8 -186 -16 -175 -6 8 -62 94
-124 192 l-112 177 -37 0 c-21 0 -41 -3 -44 -7z"/>
</g>
</svg>
